- 
http://www.Speed.Cd 
       
http://www.Speed.Cd      fast  and The Hottest Private Tracker on the net

(((--Submit for invite!!--)))

Please Seed back to make the speed Faster!!!

------------------nfo--------------------------
-                                                                                                     
       
     
     
       
       
     
     
                                         
                                         
                EXVID                    
                                         
         
                                         
         Filled the Archives             
                                         
         
                                         
                With:                    
                                         
         
                                         
                                    
     E240                           
                                    
     SP               (C) 2009      
                                         
     
     
     
                                                                                  
                                                                                   
             The.Abyss.1989.Theatrical.Cut.DVDRip.XviD-EXViD                        
                                                                                   
                                                                                  
     
                                                                                               
EXViD aims to iNTERNAL those releases which have been lost in the archives.
EXViD aims to PRE non-internal releases which have poor sources and are likely skipped by others.
 
http://www.imdb.com/title/tt0096754/
Subtitles: English, Spanish
Date: 2011.09

Directors: James Cameron

Genres: Action | Adventure | Drama | Mystery | Sci-Fi | Thriller

Plot:
An American nuclear submarine encounters an alien species, which coincidentally causes massive
electrical and hydraulic malfunctions, causing the sub to crash into an underwater cliff and
sink. The navy asks the workers of a nearby underwater oil rig who are joined by a number of
navy SEALS to locate and investigate the cause of the crash. As the crew embark on their
mission, they encounter a number of difficulties and discover that they may not be alone.
There is something else down there.

Cast:
Ed Harris 	 ... 	 Virgil 'Bud' Brigman
Mary Elizabeth Mastrantonio 	 ... 	 Lindsey Brigman
Michael Biehn 	 ... 	 Lt. Hiram Coffey
Leo Burmester 	 ... 	 Catfish De Vries
Todd Graff 	 ... 	 Alan 'Hippy' Carnes
John Bedford Lloyd 	 ... 	 Jammer Willis
J.C. Quinn 	 ... 	 'Sonny' Dawson
Kimberly Scott 	 ... 	 Lisa 'One Night' Standing
Captain Kidd Brewer Jr. 	 ... 	 Lew Finler (as Capt. Kidd Brewer Jr.)
George Robert Klek 	 ... 	 Wilhite
Christopher Murphy 	 ... 	 Schoenick
Adam Nelson 	 ... 	 Ensign Monk
Dick Warlock 	 ... 	 Dwight Perry (as Richard Warlock)
Jimmie Ray Weeks 	 ... 	 Leland McBride
J. Kenneth Campbell 	 ... 	 DeMarco

Stats:
Format                           : AVI
Format/Info                      : Audio Video Interleave
File size                        : 1.37 GiB
Duration                         : 2h 25mn
Overall bit rate                 : 1 349 Kbps
Writing application              : Nandub v1.0rc2
Writing library                  : Nandub build 1852/release

Video
ID                               : 0
Format                           : MPEG-4 Visual
Format profile                   : Advanced Simple@L5
Format settings, BVOP            : 2
Format settings, QPel            : No
Format settings, GMC             : No warppoints
Format settings, Matrix          : Default (H.263)
Codec ID                         : XVID
Codec ID/Hint                    : XviD
Duration                         : 2h 25mn
Bit rate                         : 1 215 Kbps
Width                            : 624 pixels
Height                           : 272 pixels
Display aspect ratio             : 2.25:1
Frame rate                       : 23.976 fps
Color space                      : YUV
Chroma subsampling               : 4:2:0
Bit depth                        : 8 bits
Scan type                        : Progressive
Compression mode                 : Lossy
Bits/(Pixel*Frame)               : 0.299
Stream size                      : 1.23 GiB (90%)
Writing library                  : XviD 64

Audio
ID                               : 1
Format                           : MPEG Audio
Format version                   : Version 1
Format profile                   : Layer 3
Mode                             : Joint stereo
Codec ID                         : 55
Codec ID/Hint                    : MP3
Duration                         : 2h 25mn
Bit rate mode                    : Variable
Bit rate                         : 121 Kbps
Nominal bit rate                 : 128 Kbps
Channel(s)                       : 2 channels
Sampling rate                    : 48.0 KHz
Compression mode                 : Lossy
Stream size                      : 126 MiB (9%)
Alignment                        : Aligned on interleaves
Interleave, duration             : 24 ms (0.58 video frame)
Interleave, preload duration     : 146 ms
Writing library                  : LAME3.98r
Encoding settings                : -m j -V 4 -q 3 -lowpass 17 --abr 128




Release notes:
DDX did the Special Edition, this is the THEATRiCAL cut.

See http://www.movie-censorship.com/report.php?ID=728 for differences.

enjoy!

Looking for:
75TB+ Archives
DUTCH/FLEMiSH Archives
                                                                                                    
Greets: CRBS EPiSODE FiCO FLS iLS KLASSiGER LiPSYNC MADE NODLABS RUNNER SPRiNTER      
   

                                                                    ASCII DONE BY XX^NFO 2oo9